<svg width="16" height="16" viewBox="0 0 16 16" fill="none" xmlns="http://www.w3.org/2000/svg">
<g clip-path="url(#clip0_2_146)">
<mask id="mask0_2_146" style="mask-type:alpha" maskUnits="userSpaceOnUse" x="0" y="2" width="16" height="12">
<path d="M4 13.6131C3.07956 13.6131 2.3334 12.891 2.3334 12.0003C2.3334 11.1095 3.07956 10.3874 4 10.3874C4.92044 10.3874 5.6666 11.1095 5.6666 12.0003C5.6666 12.891 4.92044 13.6131 4 13.6131ZM16 11.0327V12.3229H13.6328C13.478 13.059 12.806 13.6133 12 13.6133C11.0794 13.6133 10.3334 12.8914 10.3334 12.0005C10.3334 11.1094 11.0794 10.3874 12 10.3874C12.543 10.3874 13.021 10.6433 13.3256 11.0327H16ZM8 4.58077V11.0327H9.3334V12.3229H6.6666V12.0005C6.6666 10.5765 5.4702 9.41948 4 9.41948C2.5292 9.41948 1.3334 10.5765 1.3334 12.0005V12.3229H0V8.45174L2.6666 7.80664L4 4.58077H8ZM6.6666 2H16V9.74232H9.3334V3.29039H6.6666V2Z" fill="white"/>
</mask>
<g mask="url(#mask0_2_146)">
<path d="M4 13.6131C3.07956 13.6131 2.3334 12.891 2.3334 12.0003C2.3334 11.1095 3.07956 10.3874 4 10.3874C4.92044 10.3874 5.6666 11.1095 5.6666 12.0003C5.6666 12.891 4.92044 13.6131 4 13.6131ZM16 11.0327V12.3229H13.6328C13.478 13.059 12.806 13.6133 12 13.6133C11.0794 13.6133 10.3334 12.8914 10.3334 12.0005C10.3334 11.1094 11.0794 10.3874 12 10.3874C12.543 10.3874 13.021 10.6433 13.3256 11.0327H16ZM8 4.58077V11.0327H9.3334V12.3229H6.6666V12.0005C6.6666 10.5765 5.4702 9.41948 4 9.41948C2.5292 9.41948 1.3334 10.5765 1.3334 12.0005V12.3229H0V8.45174L2.6666 7.80664L4 4.58077H8ZM6.6666 2H16V9.74232H9.3334V3.29039H6.6666V2Z" fill="black"/>
<path d="M16 0H0V16H16V0Z" fill="#2F2F2F"/>
</g>
</g>
<defs>
<clipPath id="clip0_2_146">
<rect width="16" height="16" fill="white"/>
</clipPath>
</defs>
</svg>
