<svg width="16" height="16" viewBox="0 0 16 16" fill="none" xmlns="http://www.w3.org/2000/svg">
<g clip-path="url(#clip0_2_137)">
<mask id="mask0_2_137" style="mask-type:alpha" maskUnits="userSpaceOnUse" x="2" y="0" width="12" height="16">
<path d="M10.6667 6.66666C11.0203 6.66666 11.3594 6.80714 11.6095 7.05719C11.8595 7.30724 12 7.64637 12 8V9.33333H2.66669V8C2.66669 7.26333 3.26402 6.66733 4.00002 6.66733H6.00002V1.334C6.00002 0.980375 6.1405 0.641237 6.39054 0.391188C6.64059 0.14114 6.97973 0.000663757 7.33335 0.000663757C7.68698 0.000663757 8.02611 0.14114 8.27616 0.391188C8.52621 0.641237 8.66669 0.980375 8.66669 1.334V6.66666H10.6667ZM2.66669 16V10.3333H12V12.78C11.9992 13.3781 12.1166 13.9704 12.3454 14.523C12.5742 15.0756 12.91 15.5776 13.3334 16H2.66669Z" fill="black"/>
</mask>
<g mask="url(#mask0_2_137)">
<path d="M10.6667 6.66666C11.0203 6.66666 11.3594 6.80714 11.6095 7.05719C11.8595 7.30724 12 7.64637 12 8V9.33333H2.66669V8C2.66669 7.26333 3.26402 6.66733 4.00002 6.66733H6.00002V1.334C6.00002 0.980375 6.1405 0.641237 6.39054 0.391188C6.64059 0.14114 6.97973 0.000663757 7.33335 0.000663757C7.68698 0.000663757 8.02611 0.14114 8.27616 0.391188C8.52621 0.641237 8.66669 0.980375 8.66669 1.334V6.66666H10.6667ZM2.66669 16V10.3333H12V12.78C11.9992 13.3781 12.1166 13.9704 12.3454 14.523C12.5742 15.0756 12.91 15.5776 13.3334 16H2.66669Z" fill="black"/>
<path fill-rule="evenodd" clip-rule="evenodd" d="M0 0H16V16H0V0Z" fill="black"/>
</g>
</g>
<defs>
<clipPath id="clip0_2_137">
<rect width="16" height="16" fill="white"/>
</clipPath>
</defs>
</svg>
