<svg width="16" height="16" viewBox="0 0 16 16" fill="none" xmlns="http://www.w3.org/2000/svg">
<mask id="mask0_2_128" style="mask-type:alpha" maskUnits="userSpaceOnUse" x="0" y="1" width="16" height="14">
<path d="M12 1.33333C11.4746 1.33281 10.9542 1.43608 10.4688 1.6372C9.98334 1.83832 9.54242 2.13335 9.17132 2.50533L7.99932 3.67666L6.82799 2.50533C6.07452 1.77195 5.06257 1.36473 4.01113 1.37181C2.95969 1.37888 1.95332 1.79967 1.20978 2.54312C0.466239 3.28658 0.0453306 4.2929 0.038134 5.34434C0.0309374 6.39578 0.438031 7.40777 1.17133 8.16133L7.05733 14.2773C7.57533 14.7953 8.42399 14.7953 8.94333 14.2773L14.828 8.16133C15.3872 7.60192 15.7681 6.88927 15.9223 6.11346C16.0766 5.33765 15.9974 4.53351 15.6947 3.80271C15.392 3.07191 14.8795 2.44726 14.2218 2.00772C13.5642 1.56819 12.791 1.3335 12 1.33333Z" fill="black"/>
</mask>
<g mask="url(#mask0_2_128)">
<path d="M12 1.33333C11.4746 1.33281 10.9542 1.43608 10.4688 1.6372C9.98334 1.83832 9.54242 2.13335 9.17132 2.50533L7.99932 3.67666L6.82799 2.50533C6.07452 1.77195 5.06257 1.36473 4.01113 1.37181C2.95969 1.37888 1.95332 1.79967 1.20978 2.54312C0.466239 3.28658 0.0453306 4.2929 0.038134 5.34434C0.0309374 6.39578 0.438031 7.40777 1.17133 8.16133L7.05733 14.2773C7.57533 14.7953 8.42399 14.7953 8.94333 14.2773L14.828 8.16133C15.3872 7.60192 15.7681 6.88927 15.9223 6.11346C16.0766 5.33765 15.9974 4.53351 15.6947 3.80271C15.392 3.07191 14.8795 2.44726 14.2218 2.00772C13.5642 1.56819 12.791 1.3335 12 1.33333Z" fill="black"/>
<path fill-rule="evenodd" clip-rule="evenodd" d="M0 0H16V16H0V0Z" fill="black"/>
</g>
</svg>
